<?xml version="1.0" encoding="UTF-8"?>
<svg id="new" xmlns="http://www.w3.org/2000/svg" viewBox="0 0 315.33 204.96">
  <defs>
    <style>
      .cls-1 {
        fill: #fff;
      }
    </style>
  </defs>
  <g>
    <path class="cls-1" d="M205.59,48.17v40.39c0,1.52-.84,2.91-2.19,3.61l-19.69,10.26c-1.01.53-2.23-.21-2.23-1.35v-39.65c0-.57-.32-1.09-.82-1.35l-10.95-5.7v-24.84c0-1.14,1.21-1.88,2.23-1.35l31.46,16.38c1.34.7,2.19,2.09,2.19,3.61Z"/>
    <path class="cls-1" d="M181.48,116.2v24.31c0,.76-.81,1.25-1.49.9l-8.8-4.58c-.68-.35-1.49.14-1.49.9v23.03c0,1.14-1.21,1.88-2.23,1.35l-21.88-11.39V44.34c0-1.14,1.21-1.88,2.23-1.35l21.88,11.39v53.22c0,.76.42,1.45,1.09,1.8l9.58,4.99c.67.35,1.09,1.05,1.09,1.8Z"/>
    <path class="cls-1" d="M145.6,150.72v24.7c0,1.14-1.21,1.88-2.23,1.35l-31.45-16.39c-1.34-.7-2.19-2.09-2.19-3.61v-40.67c0-1.52.84-2.91,2.19-3.61l19.69-10.26c1.01-.53,2.23.21,2.23,1.35v40.07c0,.57.32,1.09.82,1.35l10.94,5.7Z"/>
  </g>
  <g>
    <path class="cls-1" d="M116.97,74.8c0-.86.37-1.63.96-2.16-.5-.54-.8-1.25-.8-2.02v-.4c0-1.63,1.33-2.95,2.95-2.95h.96c1.62,0,2.93,1.31,2.93,2.95v.4c0,.77-.3,1.47-.78,2.02.58.53.94,1.3.94,2.16v.72c0,1.63-1.31,2.96-2.93,2.96h-1.28c-1.62,0-2.95-1.34-2.95-2.96v-.72ZM122.41,75.52v-.72c0-.69-.53-1.22-1.22-1.22h-1.28c-.7,0-1.23.54-1.23,1.22v.72c0,.7.54,1.26,1.23,1.25h1.28c.67,0,1.22-.54,1.22-1.25ZM120.01,71.85h1.02c.67,0,1.22-.54,1.22-1.23v-.4c0-.7-.53-1.23-1.22-1.23h-.96c-.7,0-1.23.54-1.23,1.23v.4c0,.67.51,1.22,1.17,1.23Z"/>
    <path class="cls-1" d="M126.68,67.27h6.16v1.71h-4.45v2.69l1.3-.86h1.22c1.6,0,2.93,1.3,2.93,2.93v1.79c0,1.63-1.31,2.95-2.93,2.95h-1.28c-1.62,0-2.95-1.31-2.95-2.95v-.16h1.71v.16c0,.69.54,1.23,1.23,1.23h1.28c.69,0,1.22-.53,1.22-1.23v-1.79c0-.67-.54-1.22-1.22-1.22h-.69l-1.82,1.23h-1.71v-6.48Z"/>
  </g>
  <g>
    <path class="cls-1" d="M116.97,86.21c0-1.63,1.33-2.95,2.95-2.95h1.28c1.62,0,2.93,1.31,2.93,2.95v5.3c0,1.63-1.31,2.96-2.93,2.96h-1.28c-1.62,0-2.95-1.34-2.95-2.96v-5.3ZM121.82,92.57l-3.14-5.09v4.03c0,.69.54,1.23,1.23,1.23h1.28c.22,0,.45-.06.62-.18ZM122.41,90.25v-4.03c0-.7-.53-1.23-1.22-1.23h-1.28c-.24,0-.45.06-.64.18l3.14,5.09Z"/>
    <path class="cls-1" d="M132.27,84.23v3.94h1.57v1.73h-1.57v4.58h-1.71v-4.58h-3.87v-6.63h1.71v4.9h2.16v-3.94h1.71Z"/>
  </g>
</svg>