<?xml version="1.0" encoding="UTF-8"?>
<svg id="new" xmlns="http://www.w3.org/2000/svg" viewBox="0 0 404.94 204.96">
  <defs>
    <style>
      .cls-1 {
        fill: #fff;
      }
    </style>
  </defs>
  <g>
    <path class="cls-1" d="M118.9,60.62v31.14c0,1.17-.65,2.24-1.69,2.78l-15.18,7.91c-.78.41-1.72-.16-1.72-1.04v-30.57c0-.44-.24-.84-.63-1.04l-8.44-4.4v-19.15c0-.88.94-1.45,1.72-1.04l24.25,12.63c1.04.54,1.69,1.61,1.69,2.78Z"/>
    <path class="cls-1" d="M100.32,113.05v18.74c0,.59-.62.97-1.15.69l-6.78-3.53c-.52-.27-1.15.11-1.15.69v17.75c0,.88-.94,1.45-1.72,1.04l-16.87-8.78V57.66c0-.88.94-1.45,1.72-1.04l16.87,8.78v41.03c0,.58.33,1.12.84,1.39l7.39,3.85c.52.27.84.81.84,1.39Z"/>
    <path class="cls-1" d="M72.66,139.67v19.04c0,.88-.94,1.45-1.72,1.04l-24.25-12.63c-1.04-.54-1.69-1.61-1.69-2.78v-31.36c0-1.17.65-2.24,1.69-2.78l15.18-7.91c.78-.41,1.72.16,1.72,1.04v30.89c0,.44.24.84.63,1.04l8.43,4.39Z"/>
  </g>
  <g>
    <path class="cls-1" d="M136.07,102.51c0-8.6,4.63-16.36,16.31-16.36,10.7,0,15.05,4.49,15.75,12.99h-7.29c-.42-4.58-2.62-7.2-8.37-7.2-6.26,0-8.97,3.6-8.97,10.56s2.52,10.47,8.74,10.47,8.32-2.66,8.69-7.52h7.34c-.65,8.97-4.95,13.32-15.94,13.32-11.68,0-16.27-7.52-16.27-16.26Z"/>
    <path class="cls-1" d="M170,102.51c0-8.46,4.49-16.36,16.4-16.36s16.36,7.95,16.36,16.36-4.44,16.26-16.36,16.26-16.4-7.66-16.4-16.26ZM186.4,112.97c6.82,0,8.97-3.69,8.97-10.47s-2.15-10.56-8.97-10.56-8.97,3.69-8.97,10.56,2.15,10.47,8.97,10.47Z"/>
    <path class="cls-1" d="M228.32,86.94h6.82v31.08h-11.78l-9.72-21.22c-.7-1.54-1.31-2.99-1.78-4.44v25.66h-6.82v-31.08h11.78l9.82,21.55c.56,1.17,1.17,2.71,1.68,4.11v-25.66Z"/>
    <path class="cls-1" d="M238.37,102.51c0-8.6,4.63-16.36,16.31-16.36,10.7,0,15.05,4.49,15.75,12.99h-7.29c-.42-4.58-2.62-7.2-8.37-7.2-6.26,0-8.97,3.6-8.97,10.56s2.52,10.47,8.74,10.47,8.32-2.66,8.69-7.52h7.34c-.65,8.97-4.95,13.32-15.94,13.32-11.68,0-16.26-7.52-16.26-16.26Z"/>
    <path class="cls-1" d="M280.66,112.37h17.43v5.66h-24.54v-31.08h24.4v5.61h-17.29v6.96h15.89v5.28h-15.89v7.57Z"/>
    <path class="cls-1" d="M328.33,96.9c0,5.75-2.8,10.28-9.86,10.28h-9.35v10.84h-7.15v-31.08h16.5c7.06,0,9.86,4.53,9.86,9.96ZM316.23,101.66c3.46,0,4.72-2.01,4.72-4.72s-1.22-4.49-4.67-4.49h-7.15v9.21h7.1Z"/>
    <path class="cls-1" d="M340.25,92.55h-10.28v-5.61h27.62v5.61h-10.24v25.47h-7.1v-25.47Z"/>
  </g>
  <g>
    <path class="cls-1" d="M142.11,130.68h-1.28c-.7,0-1.23.54-1.23,1.23v5.3c0,.69.54,1.23,1.23,1.23h1.28c.67,0,1.22-.54,1.22-1.23v-.88h1.71v.88c0,1.63-1.31,2.96-2.93,2.96h-1.28c-1.62,0-2.95-1.34-2.95-2.96v-5.3c0-1.63,1.33-2.95,2.95-2.95h1.28c1.62,0,2.93,1.31,2.93,2.95v.88h-1.71v-.88c0-.7-.53-1.23-1.22-1.23Z"/>
    <path class="cls-1" d="M147.6,140.17v-3.65l2.74-7.56h1.68l2.74,7.56v3.65h-1.71v-2.48h-3.73v2.48h-1.71ZM152.74,135.98l-1.55-4.31-1.57,4.31h3.12Z"/>
    <path class="cls-1" d="M162.58,140.17l-1.97-4.37h-1.58v4.37h-1.71v-11.2h4.23c1.62,0,2.93,1.31,2.93,2.95v.96c0,1.31-.86,2.42-2.05,2.8l2.05,4.5h-1.89ZM161.54,134.09c.69,0,1.22-.53,1.22-1.22v-.96c0-.7-.53-1.23-1.22-1.23h-2.51v3.41h2.51Z"/>
  </g>
  <g>
    <path class="cls-1" d="M139.6,152.34v.61c0,.74.59,1.33,1.33,1.33h1.07c.78,0,1.33-.5,1.33-1.17,0-2.14-5.28-2.53-5.28-5.6,0-1.6,1.26-2.72,3.04-2.72h.75c1.68,0,3.04,1.36,3.04,3.04v.45h-1.71v-.45c0-.74-.59-1.33-1.33-1.33h-.75c-.85,0-1.33.38-1.33,1.01,0,1.58,5.28,2.23,5.28,5.6,0,1.63-1.31,2.88-3.04,2.88h-1.07c-1.68,0-3.04-1.36-3.04-3.04v-.61h1.71Z"/>
    <path class="cls-1" d="M154.75,146.49h-5.44v2.75h4.8v1.73h-4.8v3.3h5.44v1.71h-7.16v-11.2h7.16v1.71Z"/>
    <path class="cls-1" d="M162.58,155.98l-1.97-4.37h-1.58v4.37h-1.71v-11.2h4.23c1.62,0,2.93,1.31,2.93,2.95v.96c0,1.31-.86,2.42-2.05,2.8l2.05,4.5h-1.89ZM161.54,149.9c.69,0,1.22-.53,1.22-1.22v-.96c0-.7-.53-1.23-1.22-1.23h-2.51v3.41h2.51Z"/>
    <path class="cls-1" d="M174.18,144.78v3.65l-2.74,7.56h-1.68l-2.74-7.56v-3.65h1.71v3.35l1.87,5.15,1.86-5.15v-3.35h1.71Z"/>
    <path class="cls-1" d="M183.89,144.78v1.71h-2.72v7.78h2.72v1.71h-7.16v-1.71h2.72v-7.78h-2.72v-1.71h7.16Z"/>
    <path class="cls-1" d="M190.67,146.49h-1.28c-.7,0-1.23.54-1.23,1.23v5.3c0,.69.54,1.23,1.23,1.23h1.28c.67,0,1.22-.54,1.22-1.23v-.88h1.71v.88c0,1.63-1.31,2.96-2.93,2.96h-1.28c-1.62,0-2.95-1.34-2.95-2.96v-5.3c0-1.63,1.33-2.95,2.95-2.95h1.28c1.62,0,2.93,1.31,2.93,2.95v.88h-1.71v-.88c0-.7-.53-1.23-1.22-1.23Z"/>
    <path class="cls-1" d="M203.31,146.49h-5.44v2.75h4.8v1.73h-4.8v3.3h5.44v1.71h-7.16v-11.2h7.16v1.71Z"/>
  </g>
  <g>
    <path class="cls-1" d="M137.89,72.35c0-.86.37-1.63.96-2.16-.5-.54-.8-1.25-.8-2.02v-.4c0-1.63,1.33-2.95,2.95-2.95h.96c1.62,0,2.93,1.31,2.93,2.95v.4c0,.77-.3,1.47-.78,2.02.58.53.94,1.3.94,2.16v.72c0,1.63-1.31,2.96-2.93,2.96h-1.28c-1.62,0-2.95-1.34-2.95-2.96v-.72ZM143.33,73.07v-.72c0-.69-.53-1.22-1.22-1.22h-1.28c-.7,0-1.23.54-1.23,1.22v.72c0,.71.54,1.26,1.23,1.25h1.28c.67,0,1.22-.54,1.22-1.25ZM140.93,69.41h1.02c.67,0,1.22-.54,1.22-1.23v-.4c0-.7-.53-1.23-1.22-1.23h-.96c-.7,0-1.23.54-1.23,1.23v.4c0,.67.51,1.22,1.17,1.23Z"/>
    <path class="cls-1" d="M147.6,64.83h6.16v1.71h-4.45v2.69l1.3-.86h1.22c1.6,0,2.93,1.3,2.93,2.93v1.79c0,1.63-1.31,2.95-2.93,2.95h-1.28c-1.62,0-2.95-1.31-2.95-2.95v-.16h1.71v.16c0,.69.54,1.23,1.23,1.23h1.28c.69,0,1.22-.53,1.22-1.23v-1.79c0-.67-.54-1.22-1.22-1.22h-.69l-1.82,1.23h-1.71v-6.48Z"/>
  </g>
  <g>
    <path class="cls-1" d="M238.31,67.4c0-1.63,1.33-2.95,2.95-2.95h1.28c1.62,0,2.93,1.31,2.93,2.95v5.3c0,1.63-1.31,2.96-2.93,2.96h-1.28c-1.62,0-2.95-1.34-2.95-2.96v-5.3ZM243.16,73.75l-3.14-5.09v4.03c0,.69.54,1.23,1.23,1.23h1.28c.22,0,.45-.06.62-.18ZM243.75,71.43v-4.03c0-.7-.53-1.23-1.22-1.23h-1.28c-.24,0-.45.06-.64.18l3.14,5.09Z"/>
    <path class="cls-1" d="M253.61,65.41v3.94h1.57v1.73h-1.57v4.58h-1.71v-4.58h-3.87v-6.63h1.71v4.9h2.16v-3.94h1.71Z"/>
  </g>
  <g>
    <g>
      <path class="cls-1" d="M251.14,156.26c-7.51,0-13.61-6.11-13.61-13.61s6.11-13.61,13.61-13.61,13.61,6.11,13.61,13.61-6.11,13.61-13.61,13.61ZM251.14,130.6c-6.64,0-12.04,5.4-12.04,12.04s5.4,12.04,12.04,12.04,12.04-5.4,12.04-12.04-5.4-12.04-12.04-12.04Z"/>
      <path class="cls-1" d="M251.14,155.43c-.43,0-.79-.35-.79-.79v-24.02c0-.43.35-.79.79-.79s.79.35.79.79v24.02c0,.43-.35.79-.79.79Z"/>
      <path class="cls-1" d="M263.89,143.43h-25.5c-.43,0-.79-.35-.79-.79s.35-.79.79-.79h25.5c.43,0,.79.35.79.79s-.35.79-.79.79Z"/>
      <path class="cls-1" d="M260.44,151.78c-.19,0-.37-.07-.52-.2l-18.61-16.71c-.32-.29-.35-.79-.06-1.11.29-.32.79-.35,1.11-.06l18.61,16.71c.32.29.35.79.06,1.11-.16.17-.37.26-.59.26Z"/>
      <path class="cls-1" d="M241.84,151.78c-.22,0-.43-.09-.59-.26-.29-.32-.26-.82.06-1.11l18.61-16.71c.32-.29.82-.26,1.11.06.29.32.26.82-.06,1.11l-18.61,16.71c-.15.13-.34.2-.52.2Z"/>
    </g>
    <g>
      <path class="cls-1" d="M282.84,156.34c-7.51,0-13.61-6.11-13.61-13.61s6.11-13.61,13.61-13.61,13.61,6.11,13.61,13.61-6.11,13.61-13.61,13.61ZM282.84,130.68c-6.64,0-12.04,5.4-12.04,12.04s5.4,12.04,12.04,12.04,12.04-5.4,12.04-12.04-5.4-12.04-12.04-12.04Z"/>
      <path class="cls-1" d="M291.6,151.67s-.04,0-.05,0c-1.53-.11-10.09-3.94-12.09-10.49h0c-1.81-5.92.67-8.4,2.48-10.21.23-.23.45-.45.65-.67.17-.18.42-.28.67-.25.25.03.47.17.6.39,1.56,2.7,5.35,10.4,8.5,20.21.08.25.03.52-.13.73-.15.19-.38.3-.62.3ZM280.95,140.72c1.43,4.66,6.84,7.81,9.41,8.93-2.7-8.05-5.73-14.47-7.38-17.52-1.69,1.68-3.56,3.62-2.04,8.59h0Z"/>
    </g>
    <g>
      <path class="cls-1" d="M314.36,156.34c-7.51,0-13.61-6.11-13.61-13.61s6.11-13.61,13.61-13.61,13.61,6.11,13.61,13.61-6.11,13.61-13.61,13.61ZM314.36,130.68c-6.64,0-12.04,5.4-12.04,12.04s5.4,12.04,12.04,12.04,12.04-5.4,12.04-12.04-5.4-12.04-12.04-12.04Z"/>
      <path class="cls-1" d="M316.92,138.14h-2.2v8.79h2.2v-8.79Z"/>
      <path class="cls-1" d="M326.82,138.14h-4.95v8.79h4.95v-8.79Z"/>
      <path class="cls-1" d="M310.32,138.14h-1.1v8.79h1.1v-8.79Z"/>
    </g>
  </g>
</svg>