<?xml version="1.0" encoding="UTF-8"?>
<svg id="new" xmlns="http://www.w3.org/2000/svg" viewBox="0 0 404.94 204.96">
  <defs>
    <style>
      .cls-1 {
        fill: #fff;
      }
    </style>
  </defs>
  <g>
    <path class="cls-1" d="M226.39,42.69v20.16c0,.76-.42,1.45-1.09,1.8l-9.83,5.12c-.51.26-1.11-.1-1.11-.67v-19.79c0-.28-.16-.54-.41-.67l-5.47-2.85v-12.4c0-.57.61-.94,1.11-.67l15.7,8.18c.67.35,1.09,1.04,1.09,1.8Z"/>
    <path class="cls-1" d="M214.36,76.65v12.13c0,.38-.4.63-.74.45l-4.39-2.29c-.34-.18-.74.07-.74.45v11.5c0,.57-.61.94-1.11.67l-10.92-5.69v-53.1c0-.57.61-.94,1.11-.67l10.92,5.69v26.57c0,.38.21.73.55.9l4.78,2.49c.34.17.55.52.55.9Z"/>
    <path class="cls-1" d="M196.45,93.88v12.33c0,.57-.61.94-1.11.67l-15.7-8.18c-.67-.35-1.09-1.04-1.09-1.8v-20.3c0-.76.42-1.45,1.09-1.8l9.83-5.12c.51-.26,1.11.1,1.11.67v20c0,.28.16.54.41.67l5.46,2.85Z"/>
  </g>
  <g>
    <path class="cls-1" d="M77.57,130.55c0-9.74,5.24-18.53,18.47-18.53,12.12,0,17.04,5.08,17.84,14.72h-8.26c-.48-5.19-2.96-8.15-9.48-8.15-7.09,0-10.16,4.08-10.16,11.96s2.86,11.86,9.9,11.86,9.42-3.02,9.85-8.52h8.31c-.74,10.16-5.61,15.09-18.05,15.09-13.23,0-18.42-8.52-18.42-18.42Z"/>
    <path class="cls-1" d="M116,130.55c0-9.58,5.08-18.53,18.58-18.53s18.53,9,18.53,18.53-5.03,18.42-18.53,18.42-18.58-8.68-18.58-18.42ZM134.58,142.41c7.73,0,10.16-4.18,10.16-11.86s-2.44-11.96-10.16-11.96-10.16,4.18-10.16,11.96,2.44,11.86,10.16,11.86Z"/>
    <path class="cls-1" d="M182.06,112.92h7.73v35.2h-13.34l-11.01-24.03c-.79-1.75-1.48-3.39-2.01-5.03v29.06h-7.73v-35.2h13.34l11.12,24.4c.64,1.32,1.32,3.07,1.91,4.66v-29.06Z"/>
    <path class="cls-1" d="M193.45,130.55c0-9.74,5.24-18.53,18.47-18.53,12.12,0,17.04,5.08,17.84,14.72h-8.26c-.48-5.19-2.96-8.15-9.48-8.15-7.09,0-10.16,4.08-10.16,11.96s2.86,11.86,9.9,11.86,9.42-3.02,9.85-8.52h8.31c-.74,10.16-5.61,15.09-18.05,15.09-13.23,0-18.42-8.52-18.42-18.42Z"/>
    <path class="cls-1" d="M241.35,141.72h19.74v6.4h-27.79v-35.2h27.63v6.35h-19.59v7.89h18v5.98h-18v8.58Z"/>
    <path class="cls-1" d="M295.34,124.2c0,6.51-3.18,11.65-11.17,11.65h-10.59v12.28h-8.1v-35.2h18.69c7.99,0,11.17,5.13,11.17,11.27ZM281.63,129.6c3.92,0,5.35-2.28,5.35-5.35s-1.38-5.08-5.29-5.08h-8.1v10.43h8.05Z"/>
    <path class="cls-1" d="M308.84,119.28h-11.65v-6.35h31.28v6.35h-11.59v28.85h-8.05v-28.85Z"/>
  </g>
</svg>