<?xml version="1.0" encoding="UTF-8"?>
<svg id="new" xmlns="http://www.w3.org/2000/svg" viewBox="0 0 315.33 204.96">
  <defs>
    <style>
      .cls-1 {
        fill: #fff;
      }
    </style>
  </defs>
  <g>
    <path class="cls-1" d="M151.1,48.17v40.39c0,1.52-.84,2.91-2.19,3.61l-19.69,10.26c-1.01.53-2.23-.21-2.23-1.35v-39.65c0-.57-.32-1.09-.82-1.35l-10.95-5.7v-24.84c0-1.14,1.21-1.88,2.23-1.35l31.46,16.38c1.34.7,2.19,2.09,2.19,3.61Z"/>
    <path class="cls-1" d="M126.99,116.2v24.31c0,.76-.81,1.25-1.49.9l-8.8-4.58c-.68-.35-1.49.14-1.49.9v23.03c0,1.14-1.21,1.88-2.23,1.35l-21.88-11.39V44.34c0-1.14,1.21-1.88,2.23-1.35l21.88,11.39v53.22c0,.76.42,1.45,1.09,1.8l9.58,4.99c.67.35,1.09,1.05,1.09,1.8Z"/>
    <path class="cls-1" d="M91.11,150.72v24.7c0,1.14-1.21,1.88-2.23,1.35l-31.45-16.39c-1.34-.7-2.19-2.09-2.19-3.61v-40.67c0-1.52.84-2.91,2.19-3.61l19.69-10.26c1.01-.53,2.23.21,2.23,1.35v40.07c0,.57.32,1.09.82,1.35l10.94,5.7Z"/>
  </g>
  <g>
    <path class="cls-1" d="M174.74,49.8c0-7.36,3.96-14,13.96-14,9.16,0,12.88,3.84,13.48,11.12h-6.24c-.36-3.92-2.24-6.16-7.16-6.16-5.36,0-7.68,3.08-7.68,9.04s2.16,8.96,7.48,8.96,7.12-2.28,7.44-6.44h6.28c-.56,7.68-4.24,11.4-13.64,11.4-10,0-13.92-6.44-13.92-13.92Z"/>
    <path class="cls-1" d="M203.78,49.8c0-7.24,3.84-14,14.04-14s14,6.8,14,14-3.8,13.92-14,13.92-14.04-6.56-14.04-13.92ZM217.82,58.76c5.84,0,7.68-3.16,7.68-8.96s-1.84-9.04-7.68-9.04-7.68,3.16-7.68,9.04,1.84,8.96,7.68,8.96Z"/>
    <path class="cls-1" d="M253.7,36.49h5.84v26.6h-10.08l-8.32-18.16c-.6-1.32-1.12-2.56-1.52-3.8v21.96h-5.84v-26.6h10.08l8.4,18.44c.48,1,1,2.32,1.44,3.52v-21.96Z"/>
  </g>
  <g>
    <path class="cls-1" d="M62.57,74.8c0-.86.37-1.63.96-2.16-.5-.54-.8-1.25-.8-2.02v-.4c0-1.63,1.33-2.95,2.95-2.95h.96c1.62,0,2.93,1.31,2.93,2.95v.4c0,.77-.3,1.47-.78,2.02.58.53.94,1.3.94,2.16v.72c0,1.63-1.31,2.96-2.93,2.96h-1.28c-1.62,0-2.95-1.34-2.95-2.96v-.72ZM68.01,75.52v-.72c0-.69-.53-1.22-1.22-1.22h-1.28c-.7,0-1.23.54-1.23,1.22v.72c0,.7.54,1.26,1.23,1.25h1.28c.67,0,1.22-.54,1.22-1.25ZM65.61,71.85h1.02c.67,0,1.22-.54,1.22-1.23v-.4c0-.7-.53-1.23-1.22-1.23h-.96c-.7,0-1.23.54-1.23,1.23v.4c0,.67.51,1.22,1.17,1.23Z"/>
    <path class="cls-1" d="M72.28,67.27h6.16v1.71h-4.45v2.69l1.3-.86h1.22c1.6,0,2.93,1.3,2.93,2.93v1.79c0,1.63-1.31,2.95-2.93,2.95h-1.28c-1.62,0-2.95-1.31-2.95-2.95v-.16h1.71v.16c0,.69.54,1.23,1.23,1.23h1.28c.69,0,1.22-.53,1.22-1.23v-1.79c0-.67-.54-1.22-1.22-1.22h-.69l-1.82,1.23h-1.71v-6.48Z"/>
  </g>
  <g>
    <path class="cls-1" d="M155.36,143.48h-1.28c-.7,0-1.23.54-1.23,1.23v5.3c0,.69.54,1.23,1.23,1.23h1.28c.67,0,1.22-.54,1.22-1.23v-.88h1.71v.88c0,1.63-1.31,2.96-2.93,2.96h-1.28c-1.62,0-2.95-1.34-2.95-2.96v-5.3c0-1.63,1.33-2.95,2.95-2.95h1.28c1.62,0,2.93,1.31,2.93,2.95v.88h-1.71v-.88c0-.7-.53-1.23-1.22-1.23Z"/>
    <path class="cls-1" d="M160.84,152.97v-3.65l2.74-7.56h1.68l2.74,7.56v3.65h-1.71v-2.48h-3.73v2.48h-1.71ZM165.98,148.78l-1.55-4.31-1.57,4.31h3.12Z"/>
    <path class="cls-1" d="M175.82,152.97l-1.97-4.37h-1.58v4.37h-1.71v-11.2h4.23c1.62,0,2.93,1.31,2.93,2.95v.96c0,1.31-.86,2.42-2.05,2.8l2.05,4.5h-1.89ZM174.78,146.89c.69,0,1.22-.53,1.22-1.22v-.96c0-.7-.53-1.23-1.22-1.23h-2.51v3.41h2.51Z"/>
  </g>
  <g>
    <path class="cls-1" d="M152.85,165.14v.61c0,.74.59,1.33,1.33,1.33h1.07c.78,0,1.33-.5,1.33-1.17,0-2.14-5.28-2.53-5.28-5.6,0-1.6,1.26-2.72,3.04-2.72h.75c1.68,0,3.04,1.36,3.04,3.04v.45h-1.71v-.45c0-.74-.59-1.33-1.33-1.33h-.75c-.85,0-1.33.38-1.33,1.01,0,1.58,5.28,2.23,5.28,5.6,0,1.63-1.31,2.88-3.04,2.88h-1.07c-1.68,0-3.04-1.36-3.04-3.04v-.61h1.71Z"/>
    <path class="cls-1" d="M168,159.29h-5.44v2.75h4.8v1.73h-4.8v3.3h5.44v1.71h-7.16v-11.2h7.16v1.71Z"/>
    <path class="cls-1" d="M175.82,168.78l-1.97-4.37h-1.58v4.37h-1.71v-11.2h4.23c1.62,0,2.93,1.31,2.93,2.95v.96c0,1.31-.86,2.42-2.05,2.8l2.05,4.5h-1.89ZM174.78,162.7c.69,0,1.22-.53,1.22-1.22v-.96c0-.7-.53-1.23-1.22-1.23h-2.51v3.41h2.51Z"/>
    <path class="cls-1" d="M187.42,157.58v3.65l-2.74,7.56h-1.68l-2.74-7.56v-3.65h1.71v3.35l1.87,5.15,1.86-5.15v-3.35h1.71Z"/>
    <path class="cls-1" d="M197.14,157.58v1.71h-2.72v7.78h2.72v1.71h-7.16v-1.71h2.72v-7.78h-2.72v-1.71h7.16Z"/>
    <path class="cls-1" d="M203.92,159.29h-1.28c-.7,0-1.23.54-1.23,1.23v5.3c0,.69.54,1.23,1.23,1.23h1.28c.67,0,1.22-.54,1.22-1.23v-.88h1.71v.88c0,1.63-1.31,2.96-2.93,2.96h-1.28c-1.62,0-2.95-1.34-2.95-2.96v-5.3c0-1.63,1.33-2.95,2.95-2.95h1.28c1.62,0,2.93,1.31,2.93,2.95v.88h-1.71v-.88c0-.7-.53-1.23-1.22-1.23Z"/>
    <path class="cls-1" d="M216.56,159.29h-5.44v2.75h4.8v1.73h-4.8v3.3h5.44v1.71h-7.16v-11.2h7.16v1.71Z"/>
  </g>
  <g>
    <path class="cls-1" d="M62.57,86.21c0-1.63,1.33-2.95,2.95-2.95h1.28c1.62,0,2.93,1.31,2.93,2.95v5.3c0,1.63-1.31,2.96-2.93,2.96h-1.28c-1.62,0-2.95-1.34-2.95-2.96v-5.3ZM67.42,92.57l-3.14-5.09v4.03c0,.69.54,1.23,1.23,1.23h1.28c.22,0,.45-.06.62-.18ZM68.01,90.25v-4.03c0-.7-.53-1.23-1.22-1.23h-1.28c-.24,0-.45.06-.64.18l3.14,5.09Z"/>
    <path class="cls-1" d="M77.87,84.23v3.94h1.57v1.73h-1.57v4.58h-1.71v-4.58h-3.87v-6.63h1.71v4.9h2.16v-3.94h1.71Z"/>
  </g>
  <g>
    <path class="cls-1" d="M174.74,80.77c0-7.36,3.96-14,13.96-14,9.16,0,12.88,3.84,13.48,11.12h-6.24c-.36-3.92-2.24-6.16-7.16-6.16-5.36,0-7.68,3.08-7.68,9.04s2.16,8.96,7.48,8.96,7.12-2.28,7.44-6.44h6.28c-.56,7.68-4.24,11.4-13.64,11.4-10,0-13.92-6.44-13.92-13.92Z"/>
    <path class="cls-1" d="M210.14,89.21h14.92v4.84h-21v-26.6h20.88v4.8h-14.8v5.96h13.6v4.52h-13.6v6.48Z"/>
    <path class="cls-1" d="M250.14,75.97c0,4.92-2.4,8.8-8.44,8.8h-8v9.28h-6.12v-26.6h14.12c6.04,0,8.44,3.88,8.44,8.52ZM239.78,80.05c2.96,0,4.04-1.72,4.04-4.04s-1.04-3.84-4-3.84h-6.12v7.88h6.08Z"/>
    <path class="cls-1" d="M260.34,72.25h-8.8v-4.8h23.64v4.8h-8.76v21.8h-6.08v-21.8Z"/>
  </g>
  <g>
    <g>
      <path class="cls-1" d="M163.96,132.26c-7.51,0-13.61-6.11-13.61-13.61s6.11-13.61,13.61-13.61,13.61,6.11,13.61,13.61-6.11,13.61-13.61,13.61ZM163.96,106.6c-6.64,0-12.04,5.4-12.04,12.04s5.4,12.04,12.04,12.04,12.04-5.4,12.04-12.04-5.4-12.04-12.04-12.04Z"/>
      <path class="cls-1" d="M163.96,131.43c-.43,0-.79-.35-.79-.79v-24.02c0-.43.35-.79.79-.79s.79.35.79.79v24.02c0,.43-.35.79-.79.79Z"/>
      <path class="cls-1" d="M176.71,119.43h-25.5c-.43,0-.79-.35-.79-.79s.35-.79.79-.79h25.5c.43,0,.79.35.79.79s-.35.79-.79.79Z"/>
      <path class="cls-1" d="M173.27,127.78c-.19,0-.37-.07-.52-.2l-18.61-16.71c-.32-.29-.35-.79-.06-1.11.29-.32.79-.35,1.11-.06l18.61,16.71c.32.29.35.79.06,1.11-.16.17-.37.26-.59.26Z"/>
      <path class="cls-1" d="M154.66,127.78c-.22,0-.43-.09-.59-.26-.29-.32-.26-.82.06-1.11l18.61-16.71c.32-.29.82-.26,1.11.06.29.32.26.82-.06,1.11l-18.61,16.71c-.15.13-.34.2-.52.2Z"/>
    </g>
    <g>
      <path class="cls-1" d="M195.67,132.34c-7.51,0-13.61-6.11-13.61-13.61s6.11-13.61,13.61-13.61,13.61,6.11,13.61,13.61-6.11,13.61-13.61,13.61ZM195.67,106.68c-6.64,0-12.04,5.4-12.04,12.04s5.4,12.04,12.04,12.04,12.04-5.4,12.04-12.04-5.4-12.04-12.04-12.04Z"/>
      <path class="cls-1" d="M204.42,127.67s-.04,0-.05,0c-1.53-.11-10.09-3.94-12.09-10.49h0c-1.81-5.92.67-8.4,2.48-10.21.23-.23.45-.45.65-.67.17-.18.42-.27.67-.25.25.03.47.17.6.39,1.56,2.7,5.35,10.39,8.5,20.21.08.25.03.52-.13.73-.15.19-.38.3-.62.3ZM193.77,116.72c1.43,4.66,6.84,7.81,9.41,8.93-2.7-8.06-5.73-14.47-7.38-17.52-1.69,1.68-3.56,3.62-2.04,8.59h0Z"/>
    </g>
    <g>
      <path class="cls-1" d="M227.18,132.34c-7.51,0-13.61-6.11-13.61-13.61s6.11-13.61,13.61-13.61,13.61,6.11,13.61,13.61-6.11,13.61-13.61,13.61ZM227.18,106.68c-6.64,0-12.04,5.4-12.04,12.04s5.4,12.04,12.04,12.04,12.04-5.4,12.04-12.04-5.4-12.04-12.04-12.04Z"/>
      <path class="cls-1" d="M229.74,114.14h-2.2v8.79h2.2v-8.79Z"/>
      <path class="cls-1" d="M239.64,114.14h-4.95v8.79h4.95v-8.79Z"/>
      <path class="cls-1" d="M223.15,114.14h-1.1v8.79h1.1v-8.79Z"/>
    </g>
  </g>
</svg>