<?xml version="1.0" encoding="UTF-8"?>
<svg id="new" xmlns="http://www.w3.org/2000/svg" viewBox="0 0 404.94 204.96">
  <defs>
    <style>
      .cls-1 {
        fill: #fff;
      }
    </style>
  </defs>
  <g>
    <path class="cls-1" d="M96.43,74.91v20.51c0,.77-.43,1.47-1.11,1.83l-10,5.21c-.52.27-1.13-.11-1.13-.69v-20.13c0-.29-.16-.55-.42-.69l-5.56-2.89v-12.61c0-.58.62-.95,1.13-.69l15.97,8.32c.68.36,1.11,1.06,1.11,1.83Z"/>
    <path class="cls-1" d="M84.19,109.44v12.34c0,.39-.41.64-.75.46l-4.47-2.33c-.34-.18-.75.07-.75.46v11.69c0,.58-.62.95-1.13.69l-11.11-5.78v-54.01c0-.58.62-.95,1.13-.69l11.11,5.78v27.02c0,.38.21.74.56.92l4.86,2.53c.34.18.56.53.56.92Z"/>
    <path class="cls-1" d="M65.97,126.97v12.54c0,.58-.62.95-1.13.69l-15.97-8.32c-.68-.36-1.11-1.06-1.11-1.83v-20.65c0-.77.43-1.47,1.11-1.83l10-5.21c.52-.27,1.13.11,1.13.69v20.35c0,.29.16.55.42.69l5.55,2.89Z"/>
  </g>
  <g>
    <path class="cls-1" d="M107.4,102.88c0-9.74,5.24-18.53,18.47-18.53,12.12,0,17.04,5.08,17.84,14.72h-8.26c-.48-5.19-2.96-8.15-9.48-8.15-7.09,0-10.16,4.08-10.16,11.96s2.86,11.86,9.9,11.86,9.42-3.02,9.85-8.52h8.31c-.74,10.16-5.61,15.09-18.05,15.09-13.23,0-18.42-8.52-18.42-18.42Z"/>
    <path class="cls-1" d="M145.83,102.88c0-9.58,5.08-18.53,18.58-18.53s18.53,9,18.53,18.53-5.03,18.42-18.53,18.42-18.58-8.68-18.58-18.42ZM164.41,114.74c7.73,0,10.16-4.18,10.16-11.86s-2.43-11.96-10.16-11.96-10.16,4.18-10.16,11.96,2.44,11.86,10.16,11.86Z"/>
    <path class="cls-1" d="M211.9,85.25h7.73v35.2h-13.34l-11.01-24.03c-.79-1.75-1.48-3.39-2.01-5.03v29.06h-7.73v-35.2h13.34l11.12,24.4c.63,1.32,1.32,3.07,1.91,4.66v-29.06Z"/>
    <path class="cls-1" d="M223.28,102.88c0-9.74,5.24-18.53,18.47-18.53,12.12,0,17.04,5.08,17.84,14.72h-8.26c-.48-5.19-2.96-8.15-9.47-8.15-7.09,0-10.16,4.08-10.16,11.96s2.86,11.86,9.9,11.86,9.42-3.02,9.85-8.52h8.31c-.74,10.16-5.61,15.09-18.05,15.09-13.23,0-18.42-8.52-18.42-18.42Z"/>
    <path class="cls-1" d="M271.18,114.05h19.74v6.4h-27.79v-35.2h27.63v6.35h-19.59v7.89h18v5.98h-18v8.58Z"/>
    <path class="cls-1" d="M325.18,96.53c0,6.51-3.18,11.65-11.17,11.65h-10.59v12.28h-8.1v-35.2h18.69c7.99,0,11.17,5.13,11.17,11.27ZM311.47,101.93c3.92,0,5.35-2.28,5.35-5.35s-1.38-5.08-5.29-5.08h-8.1v10.43h8.05Z"/>
    <path class="cls-1" d="M338.68,91.61h-11.65v-6.35h31.28v6.35h-11.59v28.85h-8.05v-28.85Z"/>
  </g>
</svg>