<?xml version="1.0" encoding="UTF-8"?>
<svg id="new" xmlns="http://www.w3.org/2000/svg" viewBox="0 0 307.06 204.96">
  <defs>
    <style>
      .cls-1 {
        fill: #1d1d1b;
      }
    </style>
  </defs>
  <g>
    <path class="cls-1" d="M118.9,65.38v27.59c0,1.04-.58,1.98-1.49,2.46l-13.45,7.01c-.69.36-1.52-.14-1.52-.92v-27.09c0-.39-.22-.74-.56-.92l-7.48-3.89v-16.97c0-.78.83-1.28,1.52-.92l21.49,11.19c.92.48,1.49,1.43,1.49,2.46Z"/>
    <path class="cls-1" d="M102.43,111.85v16.61c0,.52-.55.86-1.02.62l-6.01-3.13c-.46-.24-1.02.09-1.02.62v15.73c0,.78-.83,1.28-1.52.92l-14.95-7.78V62.76c0-.78.83-1.28,1.52-.92l14.95,7.78v36.36c0,.52.29.99.75,1.23l6.55,3.41c.46.24.75.71.75,1.23Z"/>
    <path class="cls-1" d="M77.92,135.43v16.88c0,.78-.83,1.28-1.52.92l-21.49-11.2c-.92-.48-1.49-1.43-1.49-2.46v-27.79c0-1.04.58-1.98,1.49-2.46l13.45-7.01c.69-.36,1.52.14,1.52.92v27.38c0,.39.22.74.56.92l7.47,3.89Z"/>
  </g>
  <g>
    <path class="cls-1" d="M137.03,80.43c0-10.05,5.46-19.11,19.26-19.11,12.64,0,17.77,5.24,18.6,15.18h-8.61c-.5-5.35-3.09-8.41-9.88-8.41-7.4,0-10.6,4.21-10.6,12.34s2.98,12.23,10.32,12.23,9.82-3.11,10.27-8.79h8.67c-.77,10.49-5.85,15.56-18.82,15.56-13.8,0-19.21-8.79-19.21-19Z"/>
    <path class="cls-1" d="M177.1,80.43c0-9.88,5.3-19.11,19.37-19.11s19.32,9.28,19.32,19.11-5.24,19-19.32,19-19.37-8.96-19.37-19ZM196.47,92.66c8.06,0,10.6-4.31,10.6-12.23s-2.54-12.34-10.6-12.34-10.6,4.31-10.6,12.34,2.54,12.23,10.6,12.23Z"/>
    <path class="cls-1" d="M245.98,62.24h8.06v36.32h-13.91l-11.48-24.79c-.83-1.8-1.55-3.5-2.1-5.19v29.98h-8.06v-36.32h13.91l11.59,25.18c.66,1.37,1.38,3.17,1.99,4.81v-29.98Z"/>
  </g>
  <g>
    <path class="cls-1" d="M117.63,124.75c0-10.05,5.39-19.11,19.02-19.11,12.48,0,17.54,5.24,18.36,15.18h-8.5c-.49-5.35-3.05-8.41-9.75-8.41-7.3,0-10.46,4.21-10.46,12.34s2.94,12.23,10.19,12.23,9.7-3.11,10.14-8.79h8.55c-.76,10.49-5.78,15.56-18.58,15.56-13.62,0-18.96-8.79-18.96-19Z"/>
    <path class="cls-1" d="M165.85,136.27h20.33v6.61h-28.61v-36.32h28.44v6.55h-20.16v8.14h18.53v6.17h-18.53v8.85Z"/>
    <path class="cls-1" d="M220.34,118.2c0,6.72-3.27,12.01-11.5,12.01h-10.9v12.67h-8.34v-36.32h19.24c8.23,0,11.5,5.3,11.5,11.63ZM206.22,123.77c4.03,0,5.5-2.35,5.5-5.52s-1.42-5.24-5.45-5.24h-8.34v10.76h8.28Z"/>
    <path class="cls-1" d="M234.23,113.12h-11.99v-6.55h32.2v6.55h-11.93v29.76h-8.28v-29.76Z"/>
  </g>
</svg>