<?xml version="1.0" encoding="UTF-8"?>
<svg id="new" xmlns="http://www.w3.org/2000/svg" viewBox="0 0 315.33 204.96">
  <defs>
    <style>
      .cls-1 {
        fill: #1d1d1b;
      }
    </style>
  </defs>
  <path class="cls-1" d="M205.59,48.17v40.39c0,1.52-.84,2.91-2.19,3.61l-19.69,10.26c-1.01.53-2.23-.21-2.23-1.35v-39.65c0-.57-.32-1.09-.82-1.35l-10.95-5.7v-24.84c0-1.14,1.21-1.88,2.23-1.35l31.46,16.38c1.34.7,2.19,2.09,2.19,3.61Z"/>
  <path class="cls-1" d="M181.48,116.2v24.31c0,.76-.81,1.25-1.49.9l-8.8-4.58c-.68-.35-1.49.14-1.49.9v23.03c0,1.14-1.21,1.88-2.23,1.35l-21.88-11.39V44.34c0-1.14,1.21-1.88,2.23-1.35l21.88,11.39v53.22c0,.76.42,1.45,1.09,1.8l9.58,4.99c.67.35,1.09,1.05,1.09,1.8Z"/>
  <path class="cls-1" d="M145.6,150.72v24.7c0,1.14-1.21,1.88-2.23,1.35l-31.45-16.39c-1.34-.7-2.19-2.09-2.19-3.61v-40.67c0-1.52.84-2.91,2.19-3.61l19.69-10.26c1.01-.53,2.23.21,2.23,1.35v40.07c0,.57.32,1.09.82,1.35l10.94,5.7Z"/>
</svg>